#!OML:ASF H:\Pregnant\Project 1\Capture day 1\Session 1\femalepreg.ASF
:FULLY-SPECIFIED
:DEGREES
447
root 3.57278 15.976 12.3189 21.5066 -9.91361 -0.345895
lowerback -21.6026 -0.796567 -1.34167
upperback -8.67837 -0.918528 1.70575
thorax 2.66886 -0.430605 2.37101
lowerneck -20.7219 -2.90493 -0.789337
upperneck 26.8653 -4.80402 2.70175
head 12.4412 -1.86591 0.355582
rclavicle 2.0773e-014 -1.31198e-014
rhumerus -39.0776 -0.952348 -78.3647
rradius 23.9079
rwrist -0.504478
rhand -14.6429 -15.5754
rfingers 7.12502
rthumb 11.5091 -45.2395
lclavicle 2.0773e-014 -1.31198e-014
lhumerus -42.4698 -1.09858 83.9028
lradius 29.006
lwrist 36.8839
lhand -23.3772 1.36747
lfingers 7.12502
lthumb 3.07887 31.325
rfemur -28.5683 24.9126 7.51444
rtibia 28.0966
rfoot -12.3084 -30.5151
rtoes -16.6667
lfemur -10.2575 -6.89662 -16.5582
ltibia 3.81667e-014
lfoot -5.8332 19.6171
ltoes -3.01652
448
root 3.57295 15.9766 12.3177 21.4937 -9.90956 -0.330892
lowerback -21.5728 -0.80049 -1.36715
upperback -8.68528 -0.918724 1.70615
thorax 2.64668 -0.429916 2.3861
lowerneck -20.7124 -2.91522 -0.786424
upperneck 26.8553 -4.82351 2.71473
head 12.4361 -1.87277 0.356893
rclavicle -1.21756e-014 -1.59028e-014
rhumerus -38.9664 -0.789116 -78.6021
rradius 24.2147
rwrist -0.802703
rhand -14.7042 -15.4887
rfingers 7.12502
rthumb 11.45 -45.1561
lclavicle -1.21756e-014 -1.59028e-014
lhumerus -42.3367 -1.1125 83.9985
lradius 29.2729
lwrist 37.0044
lhand -23.3836 1.33297
lfingers 7.12502
lthumb 3.07269 31.2906
rfemur -28.5575 24.9019 7.5047
rtibia 28.0939
rfoot -12.3013 -30.5119
rtoes -16.6751
lfemur -10.2584 -6.90689 -16.5725
ltibia -2.22639e-014
lfoot -5.80148 19.6182
ltoes -3.09744
449
root 3.57312 15.9773 12.3163 21.4768 -9.90349 -0.320843
lowerback -21.5319 -0.803422 -1.38687
upperback -8.69561 -0.918949 1.70847
thorax 2.61521 -0.429206 2.4
lowerneck -20.6786 -2.92706 -0.795051
upperneck 26.8241 -4.84141 2.73203
head 12.418 -1.88022 0.36244
rclavicle 5.71506e-015 -9.93923e-015
rhumerus -38.8677 -0.613052 -78.8424
rradius 24.5298
rwrist -1.08997
rhand -14.7719 -15.4067
rfingers 7.12502
rthumb 11.3848 -45.0777
lclavicle 5.71506e-015 -9.93923e-015
lhumerus -42.2169 -1.14864 84.1119
lradius 29.5365
lwrist 37.1396
lhand -23.4249 1.27396
lfingers 7.12502
lthumb 3.03279 31.2321
rfemur -28.5383 24.895 7.50224
rtibia 28.0849
rfoot -12.2938 -30.5087
rtoes -16.6796
lfemur -10.2537 -6.91693 -16.5803
ltibia 9.54166e-015
lfoot -5.78397 19.6152
ltoes -3.11928
450
root 3.57332 15.9779 12.3146 21.4577 -9.89766 -0.314131
lowerback -21.4886 -0.806247 -1.40259
upperback -8.70459 -0.919909 1.7117
thorax 2.58403 -0.428932 2.41243
lowerneck -20.6423 -2.93777 -0.809501
upperneck 26.7878 -4.8587 2.76
head 12.3979 -1.88666 0.373156
rclavicle 6.90777e-015 -5.96354e-015
rhumerus -38.7674 -0.433326 -79.0851
rradius 24.8437
rwrist -1.36056
rhand -14.8366 -15.3508
rfingers 7.12502
rthumb 11.3224 -45.0252
lclavicle 6.90777e-015 -5.96354e-015
lhumerus -42.1032 -1.19986 84.2331
lradius 29.8
lwrist 37.2677
lhand -23.4541 1.17668
lfingers 7.12502
lthumb 3.00456 31.1353
rfemur -28.5143 24.8892 7.50425
rtibia 28.0714
rfoot -12.284 -30.5027
rtoes -16.6835
lfemur -10.2463 -6.92568 -16.5853
ltibia -1.59028e-015
lfoot -5.7643 19.6135
ltoes -3.15664
451
root 3.57351 15.9784 12.3125 21.4383 -9.89106 -0.311724
lowerback -21.443 -0.808089 -1.41213
upperback -8.71097 -0.920814 1.71454
thorax 2.5544 -0.428787 2.42092
lowerneck -20.6136 -2.94746 -0.840463
upperneck 26.7492 -4.87669 2.81409
head 12.3798 -1.89148 0.396304
rclavicle -1.95306e-014 7.15625e-015
rhumerus -38.6641 -0.244459 -79.3355
rradius 25.1598
rwrist -1.62375
rhand -14.9006 -15.3098
rfingers 7.12502
rthumb 11.2606 -44.9875
lclavicle -1.95306e-014 7.15625e-015
lhumerus -41.9882 -1.26572 84.3599
lradius 30.0617
lwrist 37.3924
lhand -23.5108 1.11991
lfingers 7.12502
lthumb 2.94983 31.0793
rfemur -28.4881 24.8874 7.51046
rtibia 28.0541
rfoot -12.2722 -30.4974
rtoes -16.6832
lfemur -10.2383 -6.93326 -16.5851
ltibia -4.77083e-015
lfoot -5.74551 19.6113
ltoes -3.1686
452
root 3.57371 15.9789 12.3102 21.419 -9.88356 -0.312367
lowerback -21.3965 -0.811245 -1.41746
upperback -8.71357 -0.92434 1.7188
thorax 2.5285 -0.430066 2.42791
lowerneck -20.5859 -2.95953 -0.835673
upperneck 26.6991 -4.89729 2.82731
head 12.3551 -1.89953 0.397549
rclavicle 4.96962e-015 2.78299e-015
rhumerus -38.5496 -0.0527873 -79.5858
rradius 25.473
rwrist -1.85381
rhand -14.9401 -15.2952
rfingers 7.12502
rthumb 11.2225 -44.9751
lclavicle 4.96962e-015 2.78299e-015
lhumerus -41.871 -1.33778 84.4896
lradius 30.323
lwrist 37.5073
lhand -23.578 1.14059
lfingers 7.12502
lthumb 2.88491 31.1008
rfemur -28.4614 24.8882 7.51977
rtibia 28.0343
rfoot -12.2538 -30.4951
rtoes -16.6904
lfemur -10.2308 -6.94043 -16.5812
ltibia 4.92986e-014
lfoot -5.72102 19.6095
ltoes -3.19067
453
root 3.57389 15.9794 12.3075 21.4034 -9.87604 -0.315361
lowerback -21.3575 -0.814664 -1.41836
upperback -8.70808 -0.928997 1.72242
thorax 2.51517 -0.432182 2.43135
lowerneck -20.584 -2.9703 -0.838596
upperneck 26.6531 -4.91947 2.85994
head 12.3382 -1.90597 0.406793
rclavicle -3.19546e-014 -1.94809e-014
rhumerus -38.4153 0.140328 -79.8388
rradius 25.7755
rwrist -2.0594
rhand -14.9697 -15.2774
rfingers 7.12502
rthumb 11.194 -44.9588
lclavicle -3.19546e-014 -1.94809e-014
lhumerus -41.743 -1.42067 84.6217
lradius 30.5815
lwrist 37.608
lhand -23.6569 1.16829
lfingers 7.12502
lthumb 2.80875 31.1295
rfemur -28.4392 24.8896 7.52938
rtibia 28.0126
rfoot -12.2313 -30.4941
rtoes -16.7031
lfemur -10.228 -6.94661 -16.5747
ltibia 2.06736e-014
lfoot -5.68374 19.6099
ltoes -3.26711
454
root 3.57407 15.9799 12.3047 21.3902 -9.86764 -0.320712
lowerback -21.3233 -0.818627 -1.41456
upperback -8.69827 -0.935231 1.72568
thorax 2.50897 -0.435284 2.43134
lowerneck -20.5873 -2.98329 -0.815425
upperneck 26.6007 -4.94483 2.86427
head 12.3182 -1.91503 0.400374
rclavicle 6.4605e-016 -1.70955e-014
rhumerus -38.2698 0.341129 -80.0955
rradius 26.0675
rwrist -2.24362
rhand -14.9858 -15.257
rfingers 7.12502
rthumb 11.1785 -44.9392
lclavicle 6.4605e-016 -1.70955e-014
lhumerus -41.6138 -1.5174 84.7593
lradius 30.8398
lwrist 37.702
lhand -23.7763 1.24134
lfingers 7.12502
lthumb 2.69343 31.2041
rfemur -28.4196 24.8936 7.53989
rtibia 27.9896
rfoot -12.2072 -30.4962
rtoes -16.7104
lfemur -10.228 -6.95252 -16.565
ltibia -1.59028e-015
lfoot -5.64243 19.6099
ltoes -3.34827
455
root 3.57427 15.9805 12.3017 21.3789 -9.85808 -0.327323
lowerback -21.2959 -0.824458 -1.40999
upperback -8.68197 -0.944148 1.73221
thorax 2.5133 -0.439824 2.4337
lowerneck -20.6056 -2.99715 -0.803928
upperneck 26.548 -4.96984 2.87703
head 12.3017 -1.92378 0.398952
rclavicle 1.03368e-014 -1.63003e-014
rhumerus -38.1127 0.558757 -80.3521
rradius 26.352
rwrist -2.41293
rhand -14.9692 -15.2552
rfingers 7.12502
rthumb 11.1945 -44.9365
lclavicle 1.03368e-014 -1.63003e-014
lhumerus -41.4831 -1.62829 84.9112
lradius 31.0947
lwrist 37.789
lhand -23.9291 1.30366
lfingers 7.12502
lthumb 2.54581 31.2682
rfemur -28.4029 24.8988 7.55022
rtibia 27.9656
rfoot -12.1833 -30.5011
rtoes -16.713
lfemur -10.231 -6.959 -16.5537
ltibia -1.90833e-014
lfoot -5.59729 19.6107
ltoes -3.46444
456
root 3.57444 15.9811 12.2986 21.3711 -9.84891 -0.332622
lowerback -21.2778 -0.831338 -1.4078
upperback -8.66331 -0.953927 1.73915
thorax 2.525 -0.444824 2.43762
lowerneck -20.6185 -3.0131 -0.780199
upperneck 26.4871 -4.99621 2.87207
head 12.28 -1.93452 0.388664
rclavicle 1.64991e-014 -1.19271e-015
rhumerus -37.9501 0.781314 -80.6052
rradius 26.6227
rwrist -2.55915
rhand -14.9092 -15.284
rfingers 7.12502
rthumb 11.2523 -44.9622
lclavicle 1.64991e-014 -1.19271e-015
lhumerus -41.3585 -1.75695 85.0735
lradius 31.3447
lwrist 37.8583
lhand -24.0984 1.33183
lfingers 7.12502
lthumb 2.3823 31.2983
rfemur -28.3919 24.905 7.55639
rtibia 27.9419
rfoot -12.1604 -30.5074
rtoes -16.7081
lfemur -10.2387 -6.96519 -16.5426
ltibia 9.54166e-015
lfoot -5.55763 19.6099
ltoes -3.55323
457
root 3.57453 15.9819 12.2953 21.3626 -9.83846 -0.337405
lowerback -21.2531 -0.839829 -1.4093
upperback -8.65005 -0.965283 1.74938
thorax 2.5277 -0.450361 2.44686
lowerneck -20.6145 -3.03271 -0.7752
upperneck 26.4185 -5.02259 2.8727
head 12.2525 -1.94683 0.383899
rclavicle 3.46879e-014 -2.46493e-014
rhumerus -37.7998 1.02558 -80.8571
rradius 26.8834
rwrist -2.70869
rhand -14.842 -15.2892
rfingers 7.12502
rthumb 11.3171 -44.9638
lclavicle 3.46879e-014 -2.46493e-014
lhumerus -41.2531 -1.90444 85.2536
lradius 31.5876
lwrist 37.9257
lhand -24.3421 1.28063
lfingers 7.12502
lthumb 2.14697 31.2496
rfemur -28.3808 24.9124 7.56241
rtibia 27.9195
rfoot -12.1428 -30.5152
rtoes -16.6944
lfemur -10.2466 -6.97251 -16.5306
ltibia -2.06736e-014
lfoot -5.52382 19.6073
ltoes -3.61995
458
root 3.57462 15.9826 12.292 21.3554 -9.83023 -0.338405
lowerback -21.2311 -0.849043 -1.4149
upperback -8.63849 -0.976736 1.75855
thorax 2.52992 -0.455873 2.45727
lowerneck -20.6116 -3.05408 -0.788333
upperneck 26.3569 -5.05202 2.89425
head 12.2293 -1.95939 0.389519
rclavicle -1.19768e-014 -1.23246e-014
rhumerus -37.6529 1.27597 -81.1064
rradius 27.1293
rwrist -2.8476
rhand -14.7505 -15.2569
rfingers 7.12502
rthumb 11.4054 -44.9267
lclavicle -1.19768e-014 -1.23246e-014
lhumerus -41.1595 -2.06475 85.438
lradius 31.8222
lwrist 37.9653
lhand -24.6107 1.21014
lfingers 7.12502
lthumb 1.88758 31.1815
rfemur -28.3741 24.918 7.5629
rtibia 27.8998
rfoot -12.1265 -30.5208
rtoes -16.6788
lfemur -10.2561 -6.97914 -16.5232
ltibia 7.95139e-015
lfoot -5.49399 19.6046
ltoes -3.6654
459
root 3.57465 15.9833 12.2888 21.3502 -9.82324 -0.336083
lowerback -21.2166 -0.85934 -1.42441
upperback -8.6245 -0.988771 1.76717
thorax 2.53863 -0.461689 2.46915
lowerneck -20.6176 -3.07718 -0.821786
upperneck 26.301 -5.08434 2.93923
head 12.2118 -1.9719 0.406721
rclavicle -1.57537e-014 -1.15295e-014
rhumerus -37.5064 1.54041 -81.3588
rradius 27.3622
rwrist -3.01144
rhand -14.6576 -15.1782
rfingers 7.12502
rthumb 11.4949 -44.8431
lclavicle -1.57537e-014 -1.15295e-014
lhumerus -41.0674 -2.22288 85.618
lradius 32.0413
lwrist 37.9571
lhand -24.8961 1.10389
lfingers 7.12502
lthumb 1.61195 31.0776
rfemur -28.3724 24.9281 7.55691
rtibia 27.8842
rfoot -12.1104 -30.5313
rtoes -16.6671
lfemur -10.2674 -6.98569 -16.5191
ltibia 3.18055e-015
lfoot -5.47172 19.6018
ltoes -3.67277
460
root 3.57459 15.9841 12.2856 21.3456 -9.81668 -0.330329
lowerback -21.1983 -0.870741 -1.43782
upperback -8.61717 -1.00144 1.77386
thorax 2.5383 -0.46765 2.48111
lowerneck -20.6025 -3.10505 -0.827901
upperneck 26.2375 -5.12238 2.95073
head 12.1851 -1.98921 0.406126
rclavicle -1.82882e-014 -4.77083e-015
rhumerus -37.3748 1.8013 -81.6048
rradius 27.5876
rwrist -3.15282
rhand -14.5376 -15.0778
rfingers 7.12502
rthumb 11.6107 -44.7362
lclavicle -1.82882e-014 -4.77083e-015
lhumerus -40.9908 -2.3757 85.7875
lradius 32.2429
lwrist 37.894
lhand -25.207 0.954613
lfingers 7.12502
lthumb 1.31163 30.9303
rfemur -28.3745 24.938 7.54688
rtibia 27.8734
rfoot -12.0971 -30.5437
rtoes -16.6568
lfemur -10.2801 -6.99291 -16.5179
ltibia -1.11319e-014
lfoot -5.45572 19.5982
ltoes -3.6586
461
root 3.57445 15.9848 12.2822 21.3421 -9.81086 -0.321235
lowerback -21.1733 -0.883335 -1.45451
upperback -8.6153 -1.01502 1.77892
thorax 2.52874 -0.473906 2.49305
lowerneck -20.5876 -3.13779 -0.83914
upperneck 26.1807 -5.16769 2.96767
head 12.1618 -2.00946 0.407209
rclavicle -8.64713e-015 5.56597e-015
rhumerus -37.2535 2.06585 -81.8488
rradius 27.8061
rwrist -3.28662
rhand -14.4227 -14.9265
rfingers 7.12502
rthumb 11.7215 -44.5785
lclavicle -8.64713e-015 5.56597e-015
lhumerus -40.9212 -2.51339 85.9412
lradius 32.4194
lwrist 37.7695
lhand -25.5319 0.759091
lfingers 7.12502
lthumb 0.997845 30.7365
rfemur -28.3818 24.9492 7.53168
rtibia 27.8673
rfoot -12.0831 -30.5593
rtoes -16.6532
lfemur -10.2955 -7.0008 -16.5206
ltibia 1.11319e-014
lfoot -5.43203 19.5977
ltoes -3.69865
